<svg
        xmlns="http://www.w3.org/2000/svg"
        width="200"
        height="200"
        viewBox="0 0 200 200"
>

    <!-- Stylized Docker Containers -->
    <g fill="#00BFFF">
        <rect x="40" y="70" width="20" height="20" rx="3" />
        <rect x="65" y="70" width="20" height="20" rx="3" />
        <rect x="90" y="70" width="20" height="20" rx="3" />
        <rect x="52.5" y="45" width="20" height="20" rx="3" />
        <rect x="77.5" y="45" width="20" height="20" rx="3" />
    </g>

    <!-- Docker Whale Body -->
    <path
            d="M35 110c0 20 30 35 60 35s60-15 60-35v-5H35v5z"
            fill="#00BFFF"
            opacity="0.8"
    />
    <circle cx="55" cy="115" r="3" fill="#fff" />

    <!-- Git Branch Path -->
    <path
            d="M 97 128 q 155 -125 0 0"
            fill="none"
            stroke="#F1502F"
            stroke-width="4"
    />
    <circle cx="175" cy="40" r="6" fill="#F1502F" />
    <circle cx="100" cy="125" r="6" fill="#F1502F" />
    <circle cx="175" cy="125" r="6" fill="#F1502F" />
    <path
            d="M 175 40 q 0 175 0 0"
            fill="none"
            stroke="#F1502F"
            stroke-width="4"
            stroke-linecap="round"
    />

</svg>
